<?xml version="1.0" encoding="UTF-8" standalone="no"?>
<svg
   width="60.549965"
   height="50.004192"
   viewBox="0 0 60.549965 50.004192"
   version="1.1"
   id="svg3"
   xmlns="http://www.w3.org/2000/svg"
   xmlns:svg="http://www.w3.org/2000/svg">
  <defs
     id="defs1" />
  <g
     data-name="Group 7490"
     id="g3"
     transform="translate(-6.8857759e-4,0.00179409)">
    <path
       data-name="Path 1998"
       d="M 50.991,11.071 C 57.935697,21.357025 56.269116,35.182826 47.079084,43.523952 37.889053,51.865078 23.966913,52.188029 14.4,44.282 l -5.355,4.86 C 8.4382528,49.69349 7.6479287,49.999353 6.828,50 H 1.657 C 0.14311836,49.995449 -0.57327045,48.131158 0.548,47.114 L 9.564,38.93 C 2.6191587,28.644182 4.2853964,14.818462 13.475122,6.4771345 22.664848,-1.8641928 36.586855,-2.1876061 46.154,5.718 L 51.506,0.86 C 52.114743,0.30569313 52.9087,-0.00104684 53.732,0 L 58.89,0.011 C 60.408186,0.01161961 61.127194,1.8829833 60,2.9 Z m -35.268,22.268 9.387,-8.52 -5.124,-7.553 c -0.745807,-1.099019 0.03882,-2.585051 1.367,-2.589 h 4.329 c 1.096062,-5.48e-4 2.120873,0.543145 2.735,1.451 l 2.389,3.521 9.188,-8.339 C 33.569079,6.7502775 24.837213,7.2740904 19.003469,12.569191 13.169724,17.864292 11.805079,26.504755 15.723,33.34 M 47.054,25 c 7.62e-4,-2.925947 -0.764989,-5.801048 -2.221,-8.339 l -9.933,9.018 5.147,7.584 c 0.746059,1.099394 -0.03937,2.58585 -1.368,2.589 h -4.331 c -1.095896,-9e-6 -2.120298,-0.544058 -2.734,-1.452 L 29.2,30.849 20.563,38.69 C 31.672389,46.631905 47.106024,38.656123 47.054,25"
       style="fill:#7f3fd9"
       id="path2" />
  </g>
</svg>
