<?xml version="1.0" encoding="UTF-8" standalone="no"?><svg viewBox="0.1754240703125 0.1754240703125 44.557713859375 44.557713859375" version="1.1" id="svg3" xmlns="http://www.w3.org/2000/svg" xmlns:svg="http://www.w3.org/2000/svg"><defs id="defs1"/><g data-name="Group 7490" id="g3" transform="translate(-1.6015815,-2.6250234)"><path data-name="Path 1998" d="m 39.256494,14.636733 c 5.095925,7.711264 3.873011,18.076242 -2.870512,24.329449 -6.743521,6.253206 -16.959401,6.495317 -23.979474,0.568296 L 8.4770804,43.177941 C 8.0318569,43.591384 7.4519275,43.820685 6.8502754,43.82117 H 3.0558647 C 1.9449986,43.817758 1.4193221,42.420129 2.2420953,41.657583 L 8.8579155,35.522171 C 3.7618838,27.81106 4.9845468,17.446143 11.727844,11.192786 18.471142,4.9394286 28.686925,4.696971 35.707168,10.623675 l 3.927226,-3.6419634 c 0.446687,-0.4155548 1.029283,-0.6455127 1.633409,-0.644728 l 3.78487,0.00824 c 1.114026,4.645e-4 1.641625,1.4033954 0.814504,2.1658362 z M 13.377307,31.330689 20.265362,24.943383 16.50544,19.281022 c -0.547263,-0.823916 0.02849,-1.93797 1.003086,-1.94093 h 3.176562 c 0.804276,-4.12e-4 1.556268,0.407186 2.006907,1.08779 l 1.753016,2.639637 6.742032,-6.251613 C 26.472521,11.397557 20.065195,11.790251 15.784471,15.7599 11.503748,19.729552 10.502389,26.207166 13.377307,31.331438 m 22.990269,-6.252362 c 5.58e-4,-2.193535 -0.561339,-4.348951 -1.629741,-6.251612 l -7.288702,6.760648 3.7768,5.685601 c 0.547448,0.824198 -0.0289,1.938569 -1.00382,1.940931 h -3.17803 c -0.804153,-7e-6 -1.555846,-0.407871 -2.006173,-1.08854 l -1.771361,-2.662128 -6.337714,5.878271 c 8.151921,5.953917 19.476914,-0.0254 19.438741,-10.263171" style="fill:#7f3fd9;stroke-width:0.741693" id="path2"/><rect style="fill:none;stroke:none;stroke-width:0.0914366;stroke-dasharray:none;stroke-opacity:1" id="rect3" width="44.908562" height="44.908562" x="1.6015815" y="2.6250234"/></g></svg>