<?xml version="1.0" encoding="UTF-8"?><svg xmlns="http://www.w3.org/2000/svg" xmlns:xlink="http://www.w3.org/1999/xlink" width="16" height="16" viewBox="0 0 16 16"><path fill-rule="nonzero" fill="rgb(49.803922%, 24.705882%, 85.098039%)" fill-opacity="1" d="M 13.457031 4.25 C 15.289062 7.019531 14.847656 10.742188 12.425781 12.988281 C 10.007812 15.230469 6.335938 15.320312 3.816406 13.191406 L 2.40625 14.5 C 2.246094 14.648438 2.039062 14.730469 1.820312 14.730469 L 0.460938 14.730469 C 0.0585938 14.730469 -0.128906 14.226562 0.167969 13.953125 L 2.542969 11.75 C 0.710938 8.980469 1.152344 5.257812 3.574219 3.011719 C 5.996094 0.769531 9.664062 0.679688 12.183594 2.808594 L 13.59375 1.5 C 13.753906 1.351562 13.964844 1.269531 14.179688 1.269531 L 15.539062 1.273438 C 15.941406 1.273438 16.128906 1.777344 15.832031 2.050781 Z M 4.164062 10.246094 L 6.640625 7.953125 L 5.289062 5.917969 C 5.09375 5.621094 5.300781 5.222656 5.648438 5.222656 L 6.789062 5.222656 C 7.078125 5.222656 7.347656 5.367188 7.511719 5.613281 L 8.140625 6.558594 L 10.5625 4.316406 C 8.867188 3.085938 6.566406 3.226562 5.03125 4.652344 C 3.492188 6.078125 3.132812 8.40625 4.164062 10.246094 M 12.421875 8 C 12.421875 7.210938 12.21875 6.4375 11.835938 5.753906 L 9.21875 8.183594 L 10.574219 10.222656 C 10.769531 10.519531 10.5625 10.921875 10.214844 10.921875 L 9.074219 10.921875 C 8.785156 10.921875 8.515625 10.773438 8.351562 10.53125 L 7.714844 9.574219 L 5.441406 11.683594 C 8.367188 13.824219 12.433594 11.675781 12.421875 8 "/></svg>